<svg width="876" height="185" viewBox="0 0 876 185" fill="none" xmlns="http://www.w3.org/2000/svg">
<path d="M873.999 183.847C874.552 183.847 875 183.399 874.999 182.847L875 173.847C875 173.295 874.552 172.847 874 172.847C873.447 172.847 872.999 173.295 873 173.847L873 181.847L865 181.847C864.447 181.847 863.999 182.295 864 182.847C864 183.399 864.447 183.847 865 183.847L873.999 183.847ZM3.01229 183.554C4.44471 182.122 5.88242 180.698 7.32538 179.283L5.92487 177.855C4.47733 179.275 3.03503 180.703 1.59807 182.14L3.01229 183.554ZM16.0454 170.893C18.9727 168.131 21.9205 165.403 24.8882 162.709L23.5439 161.228C20.5666 163.93 17.6094 166.667 14.6728 169.439L16.0454 170.893ZM33.9354 154.655C36.9751 152.002 40.0346 149.383 43.1135 146.8L41.8279 145.268C38.7391 147.86 35.6697 150.486 32.6203 153.148L33.9354 154.655ZM52.4329 139.134C55.5798 136.597 58.7459 134.095 61.9306 131.628L60.706 130.047C57.511 132.521 54.3346 135.031 51.1775 137.577L52.4329 139.134ZM71.54 124.336C74.7811 121.926 78.0403 119.552 81.3174 117.214L80.1559 115.586C76.8682 117.932 73.5982 120.313 70.3467 122.731L71.54 124.336ZM91.2253 110.293C94.5496 108.019 97.8912 105.781 101.25 103.58L100.153 101.907C96.7838 104.116 93.4312 106.361 90.0961 108.642L91.2253 110.293ZM111.438 97.0444C114.851 94.9027 118.28 92.7977 121.725 90.7294L120.695 89.0147C117.239 91.0898 113.799 93.2017 110.375 95.3504L111.438 97.0444ZM132.151 84.6096C135.65 82.602 139.164 80.6316 142.694 78.6983L141.733 76.9442C138.192 78.8838 134.666 80.8607 131.155 82.8749L132.151 84.6096ZM153.335 73.0061C156.914 71.1367 160.507 69.3049 164.115 67.5108L163.224 65.72C159.605 67.5201 156 69.3578 152.409 71.2333L153.335 73.0061ZM174.979 62.2411C178.625 60.5169 182.284 58.8305 185.957 57.182L185.137 55.3574C181.453 57.0113 177.782 58.7033 174.124 60.4331L174.979 62.2411ZM197.031 52.3414C200.738 50.7649 204.456 49.2264 208.187 47.726L207.44 45.8704C203.698 47.3758 199.967 48.9193 196.249 50.501L197.031 52.3414ZM219.452 43.3235C223.219 41.8943 226.997 40.5034 230.785 39.1507L230.113 37.2672C226.312 38.6242 222.522 40.0197 218.743 41.4536L219.452 43.3235ZM242.208 35.1989C246.031 33.9186 249.863 32.6768 253.705 31.4736L253.107 29.565C249.253 30.7721 245.408 32.0179 241.573 33.3024L242.208 35.1989ZM265.265 27.9778C269.136 26.8485 273.017 25.758 276.905 24.7063L276.383 22.7757C272.482 23.8308 268.589 24.9249 264.705 26.0578L265.265 27.9778ZM288.595 21.6675C292.506 20.6917 296.425 19.7548 300.351 18.8568L299.905 16.9072C295.966 17.8081 292.035 18.748 288.111 19.727L288.595 21.6675ZM312.157 16.2781C316.101 15.457 320.051 14.675 324.008 13.9319L323.638 11.9663C319.669 12.7118 315.706 13.4964 311.749 14.3201L312.157 16.2781ZM335.909 11.8172C339.881 11.1514 343.859 10.5247 347.842 9.93712L347.55 7.95854C343.554 8.54805 339.564 9.17679 335.578 9.84476L335.909 11.8172ZM359.816 8.28989C363.812 7.7799 367.813 7.3091 371.817 6.87749L371.602 4.88901C367.586 5.32201 363.572 5.79433 359.563 6.30599L359.816 8.28989ZM383.842 5.69993C387.856 5.34644 391.872 5.03223 395.891 4.75728L395.754 2.76194C391.723 3.03778 387.693 3.35301 383.667 3.70763L383.842 5.69993ZM407.953 4.05023C411.976 3.85374 416.002 3.69653 420.028 3.57864L419.97 1.57949C415.93 1.69777 411.892 1.85549 407.855 2.05261L407.953 4.05023ZM432.11 3.34283C436.138 3.30353 440.166 3.30353 444.194 3.34283L444.214 1.34293C440.173 1.3035 436.132 1.3035 432.091 1.34293L432.11 3.34283ZM456.276 3.57863C460.302 3.69652 464.328 3.85372 468.352 4.05022L468.449 2.05259C464.412 1.85546 460.374 1.69776 456.334 1.57949L456.276 3.57863ZM480.414 4.75725C484.432 5.0322 488.449 5.34641 492.462 5.69989L492.638 3.70761C488.611 3.35298 484.582 3.03775 480.55 2.76192L480.414 4.75725ZM504.488 6.87746C508.492 7.30905 512.492 7.77986 516.489 8.28986L516.742 6.30595C512.732 5.79429 508.719 5.32197 504.702 4.88898L504.488 6.87746ZM528.463 9.93707C532.445 10.5247 536.423 11.1514 540.395 11.8172L540.726 9.84471C536.741 9.17674 532.75 8.54801 528.754 7.95849L528.463 9.93707ZM552.297 13.9319C556.253 14.6749 560.204 15.457 564.148 16.278L564.555 14.32C560.598 13.4963 556.635 12.7117 552.666 11.9663L552.297 13.9319ZM575.953 18.8568C579.879 19.7547 583.798 20.6917 587.709 21.6674L588.194 19.7269C584.27 18.748 580.338 17.808 576.399 16.9071L575.953 18.8568ZM599.399 24.7062C603.288 25.758 607.168 26.8484 611.039 27.9777L611.599 26.0577C607.715 24.9248 603.823 23.8307 599.921 22.7756L599.399 24.7062ZM622.599 31.4735C626.441 32.6767 630.274 33.9185 634.096 35.1988L634.731 33.3023C630.897 32.0179 627.052 30.772 623.197 29.5649L622.599 31.4735ZM645.519 39.1506C649.308 40.5033 653.085 41.8942 656.852 43.3234L657.562 41.4535C653.783 40.0196 649.992 38.6241 646.192 37.2671L645.519 39.1506ZM668.118 47.7259C671.848 49.2263 675.567 50.7648 679.273 52.3413L680.056 50.5009C676.337 48.9192 672.607 47.3757 668.864 45.8703L668.118 47.7259ZM690.348 57.1819C694.02 58.8304 697.68 60.5168 701.326 62.241L702.181 60.433C698.523 58.7032 694.851 57.0113 691.167 55.3573L690.348 57.1819ZM712.19 67.5107C715.797 69.3048 719.391 71.1366 722.97 73.006L723.896 71.2332C720.305 69.3577 716.7 67.5199 713.08 65.7199L712.19 67.5107ZM733.61 78.6982C737.14 80.6315 740.655 82.6019 744.154 84.6095L745.149 82.8748C741.639 80.8606 738.112 78.8837 734.571 76.9441L733.61 78.6982ZM754.58 90.7293C758.025 92.7976 761.454 94.9026 764.867 97.0443L765.93 95.3503C762.506 93.2016 759.065 91.0897 755.609 89.0146L754.58 90.7293ZM775.055 103.58C778.413 105.781 781.755 108.019 785.079 110.293L786.208 108.642C782.873 106.36 779.521 104.115 776.151 101.907L775.055 103.58ZM794.987 117.214C798.264 119.552 801.523 121.926 804.764 124.336L805.958 122.731C802.706 120.313 799.436 117.932 796.149 115.586L794.987 117.214ZM814.374 131.628C817.559 134.094 820.725 136.596 823.872 139.134L825.127 137.577C821.97 135.031 818.794 132.521 815.599 130.047L814.374 131.628ZM833.191 146.8C836.27 149.383 839.329 152.002 842.369 154.655L843.684 153.148C840.635 150.486 837.565 147.86 834.477 145.268L833.191 146.8ZM851.416 162.708C854.384 165.402 857.332 168.131 860.259 170.893L861.632 169.438C858.695 166.667 855.738 163.93 852.761 161.228L851.416 162.708ZM868.979 179.282C870.422 180.698 871.86 182.122 873.292 183.554L874.707 182.14C873.27 180.703 871.827 179.275 870.38 177.855L868.979 179.282ZM873.999 184.847C875.104 184.847 876 183.952 875.999 182.847L875.999 164.847C875.999 163.743 875.104 162.847 873.999 162.847C872.895 162.847 872 163.743 871.999 164.847L872 180.847L855.999 180.847C854.895 180.847 854 181.743 853.999 182.847C854 183.952 854.895 184.847 855.999 184.847L873.999 184.847ZM3.71939 184.261C5.14953 182.831 6.58494 181.41 8.02559 179.997L5.22461 177.141C3.77477 178.563 2.33021 179.994 0.890966 181.433L3.71939 184.261ZM16.7317 171.62C19.6543 168.863 22.5974 166.139 25.5603 163.449L22.8717 160.487C19.8898 163.194 16.9278 165.936 13.9865 168.711L16.7317 171.62ZM34.5931 155.408C37.6278 152.759 40.6824 150.145 43.7562 147.566L41.1851 144.502C38.0914 147.098 35.017 149.729 31.9627 152.395L34.5931 155.408ZM53.0606 139.912C56.2024 137.379 59.3633 134.881 62.5429 132.419L60.0937 129.256C56.8935 131.735 53.712 134.249 50.5498 136.799L53.0606 139.912ZM72.1367 125.138C75.3724 122.732 78.6264 120.363 81.8982 118.029L79.5752 114.772C76.2821 117.121 73.0068 119.507 69.75 121.928L72.1367 125.138ZM91.7899 111.118C95.1087 108.848 98.4449 106.614 101.798 104.416L99.6049 101.071C96.2301 103.283 92.8721 105.531 89.5315 107.817L91.7899 111.118ZM111.969 97.8914C115.377 95.7532 118.8 93.6517 122.24 91.5868L120.181 88.1574C116.719 90.2358 113.273 92.3511 109.843 94.5034L111.969 97.8914ZM132.648 85.477C136.142 83.4727 139.651 81.5055 143.174 79.5754L141.253 76.0671C137.706 78.0099 134.174 79.99 130.658 82.0075L132.648 85.477ZM153.798 73.8925C157.371 72.0262 160.959 70.1974 164.56 68.4062L162.779 64.8246C159.154 66.6276 155.542 68.4684 151.946 70.3469L153.798 73.8925ZM175.406 63.1451C179.046 61.4237 182.7 59.7401 186.366 58.0943L184.728 54.4451C181.038 56.1018 177.36 57.7964 173.696 59.5291L175.406 63.1451ZM197.423 53.2616C201.123 51.6877 204.836 50.1517 208.56 48.6537L207.067 44.9427C203.319 46.4505 199.582 47.9965 195.857 49.5808L197.423 53.2616ZM219.807 44.2584C223.568 42.8316 227.339 41.4429 231.122 40.0925L229.777 36.3254C225.97 37.6847 222.173 39.0824 218.388 40.5186L219.807 44.2584ZM242.526 36.1471C246.342 34.8689 250.168 33.6291 254.004 32.4279L252.808 28.6107C248.948 29.8198 245.097 31.0676 241.255 32.3542L242.526 36.1471ZM265.545 28.9378C269.41 27.8103 273.284 26.7216 277.166 25.6716L276.122 21.8104C272.214 22.8672 268.315 23.963 264.425 25.0978L265.545 28.9378ZM288.837 22.6378C292.742 21.6635 296.654 20.7282 300.574 19.8316L299.682 15.9323C295.737 16.8347 291.799 17.7762 287.869 18.7568L288.837 22.6378ZM312.361 17.2571C316.298 16.4374 320.242 15.6566 324.192 14.9148L323.454 10.9835C319.478 11.7302 315.509 12.516 311.545 13.341L312.361 17.2571ZM336.074 12.8035C340.04 12.1387 344.012 11.5131 347.988 10.9264L347.404 6.96925C343.402 7.55972 339.405 8.18947 335.413 8.85851L336.074 12.8035ZM359.942 9.28185C363.932 8.77267 367.926 8.30263 371.924 7.87173L371.495 3.89476C367.472 4.32847 363.452 4.80155 359.436 5.31403L359.942 9.28185ZM383.93 6.69606C387.937 6.34316 391.947 6.02945 395.959 5.75494L395.686 1.76427C391.648 2.04055 387.612 2.35628 383.579 2.71149L383.93 6.69606ZM408.001 5.04904C412.019 4.85286 416.038 4.69592 420.058 4.57822L419.941 0.579929C415.895 0.698388 411.85 0.856347 407.806 1.0538L408.001 5.04904ZM432.12 4.34279C436.141 4.30355 440.163 4.30355 444.184 4.34279L444.223 0.342968C440.176 0.303489 436.128 0.303489 432.081 0.342978L432.12 4.34279ZM456.247 4.5782C460.267 4.6959 464.286 4.85284 468.303 5.04902L468.498 1.05379C464.455 0.856336 460.41 0.698377 456.364 0.579918L456.247 4.5782ZM480.345 5.75492C484.357 6.02942 488.367 6.34314 492.374 6.69604L492.725 2.71147C488.692 2.35626 484.656 2.04054 480.618 1.76425L480.345 5.75492ZM504.38 7.87169C508.378 8.3026 512.372 8.77264 516.362 9.28181L516.868 5.31398C512.852 4.80151 508.832 4.32843 504.809 3.89473L504.38 7.87169ZM528.317 10.9264C532.293 11.513 536.264 12.1387 540.23 12.8034L540.891 8.85846C536.899 8.18942 532.902 7.55967 528.9 6.9692L528.317 10.9264ZM552.112 14.9147C556.062 15.6566 560.006 16.4373 563.944 17.257L564.759 13.341C560.796 12.5159 556.826 11.7301 552.851 10.9834L552.112 14.9147ZM575.73 19.8316C579.65 20.7281 583.562 21.6635 587.467 22.6377L588.436 18.7567C584.505 17.7761 580.567 16.8346 576.622 15.9323L575.73 19.8316ZM599.138 25.6715C603.02 26.7216 606.894 27.8103 610.759 28.9377L611.879 25.0977C607.989 23.9629 604.09 22.8671 600.183 21.8103L599.138 25.6715ZM622.301 32.4278C626.136 33.6291 629.962 34.8688 633.778 36.147L635.049 32.3541C631.208 31.0675 627.357 29.8197 623.496 28.6107L622.301 32.4278ZM645.183 40.0924C648.965 41.4428 652.737 42.8315 656.497 44.2584L657.916 40.5185C654.131 39.0823 650.335 37.6846 646.528 36.3253L645.183 40.0924ZM667.744 48.6536C671.469 50.1516 675.181 51.6876 678.882 53.2615L680.447 49.5806C676.723 47.9964 672.986 46.4504 669.237 44.9426L667.744 48.6536ZM689.938 58.0942C693.605 59.74 697.258 61.4237 700.898 63.145L702.608 59.529C698.944 57.7963 695.267 56.1017 691.576 54.445L689.938 58.0942ZM711.744 68.4061C715.346 70.1973 718.934 72.026 722.507 73.8923L724.359 70.3468C720.762 68.4683 717.151 66.6275 713.525 64.8245L711.744 68.4061ZM733.13 79.5753C736.654 81.5053 740.163 83.4726 743.656 85.4769L745.647 82.0074C742.13 79.9899 738.599 78.0098 735.052 76.0671L733.13 79.5753ZM754.065 91.5867C757.504 93.6516 760.928 95.7531 764.335 97.8913L766.461 94.5033C763.032 92.351 759.586 90.2357 756.124 88.1573L754.065 91.5867ZM774.507 104.416C777.86 106.614 781.196 108.848 784.515 111.118L786.773 107.816C783.432 105.531 780.074 103.283 776.7 101.071L774.507 104.416ZM794.406 118.028C797.678 120.362 800.932 122.732 804.168 125.138L806.554 121.928C803.298 119.507 800.022 117.121 796.729 114.772L794.406 118.028ZM813.762 132.419C816.941 134.881 820.102 137.379 823.244 139.912L825.755 136.798C822.592 134.249 819.411 131.735 816.211 129.256L813.762 132.419ZM832.548 147.566C835.622 150.145 838.677 152.759 841.711 155.408L844.342 152.395C841.287 149.729 838.213 147.098 835.119 144.502L832.548 147.566ZM850.744 163.449C853.707 166.139 856.65 168.862 859.573 171.62L862.318 168.711C859.377 165.935 856.415 163.194 853.433 160.487L850.744 163.449ZM868.279 179.996C869.72 181.41 871.155 182.831 872.585 184.261L875.414 181.433C873.974 179.994 872.53 178.563 871.08 177.141L868.279 179.996Z" fill="white"/>
</svg>
