<svg width="43" height="36" viewBox="0 0 43 36" fill="none" xmlns="http://www.w3.org/2000/svg">
<g clip-path="url(#clip0_163_17547)">
<path d="M42.1318 21.1929C42.0503 20.4918 41.5099 17.9572 39.2496 16.0724C38.3675 15.328 37.2151 14.6623 35.7171 14.2015C35.2332 11.5545 34.1174 9.07006 32.4684 6.96782C29.2448 2.82218 24.1024 0.104379 18.296 0.00984709L18.2825 0V0.00984709C18.076 0.00984709 17.8694 0.00984709 17.6629 0.00984709V0L17.6532 0.00984709C12.7136 0.0984709 7.99203 2.11516 4.65064 5.57345C1.59301 8.73833 -0.0574122 12.8268 0.000497175 17.0886C0.0410338 19.7474 0.0892918 20.5627 0.409723 25.892C0.477285 27.0086 0.556429 28.3222 0.649082 29.8938C0.660922 30.1458 0.732456 30.3911 0.857558 30.6087C2.8786 33.9863 13.5494 34.4097 18.7632 34.4097C20.374 34.4097 21.5216 34.3743 21.7175 34.3644C22.1634 34.5564 25.4131 35.9399 26.9294 35.999C27.1494 36.0068 27.3692 35.9775 27.5799 35.9123L30.6066 34.973C30.7165 34.9388 30.8119 34.868 30.8777 34.772C30.9435 34.6759 30.9758 34.5602 30.9695 34.4432L30.8634 32.2847C30.8581 32.1639 30.8977 32.0454 30.9743 31.953C31.0509 31.8607 31.1588 31.8012 31.2764 31.7864C35.2046 31.3039 37.6677 32.4324 38.5615 32.8026C38.6275 32.8297 38.6983 32.8424 38.7694 32.84C38.8405 32.8377 38.9104 32.8202 38.9746 32.7889L41.8507 31.3847C41.9341 31.3435 42.0049 31.2804 42.0555 31.2017C42.1065 31.123 42.1357 31.0318 42.1405 30.9376C42.2164 29.492 42.4674 23.891 42.1318 21.1929ZM37.5249 22.3529C36.7721 22.1422 35.388 21.8606 33.3467 21.8379C33.8932 21.4459 34.5206 21.1872 35.1805 21.0816C35.9526 21.0009 36.5626 21.2077 37.0568 21.7099C37.2422 21.9028 37.4025 22.1192 37.5336 22.3539L37.5249 22.3529ZM37.0741 15.7997L35.9932 20.4573C35.6977 20.4087 35.397 20.4008 35.0994 20.4337H35.0821C34.6227 20.5096 34.1754 20.648 33.7521 20.8453L32.1403 17.2324C32.9321 16.612 33.8331 16.1521 34.7945 15.8775C35.5372 15.6657 36.3186 15.6374 37.0741 15.7947V15.7997ZM9.73123 20.8315C7.02877 20.546 4.79347 20.1797 3.1778 19.8705C3.1527 18.9921 3.11796 16.1581 3.61019 13.7928C5.15445 14.0745 7.31641 14.4152 9.90881 14.6889C9.6849 17.65 9.70806 19.9325 9.73123 20.8266V20.8315ZM6.55584 13.5309C6.884 10.5965 7.90707 9.14695 8.24681 8.73538C9.59223 8.9638 11.1867 9.18437 12.9877 9.33601C12.4897 10.9037 12.3912 13.2414 12.3738 14.1808C10.1752 14.0026 8.20436 13.7662 6.55584 13.526V13.5309ZM10.7138 8.35625C10.9222 7.67876 11.5496 5.94765 12.9761 4.05502C14.5508 4.28364 16.1381 4.40927 17.7285 4.4312V8.81118C15.3835 8.80058 13.0412 8.64866 10.7138 8.35625ZM13.1074 14.231C13.1267 13.3152 13.227 10.8417 13.7444 9.39018C15.0647 9.48867 16.4854 9.54182 17.991 9.54182C19.5546 9.54182 21.2069 9.48078 22.9346 9.33504C23.5658 10.8417 23.4905 13.4176 23.4423 14.3098C19.9991 14.5039 16.5473 14.4776 13.1074 14.231ZM23.6758 4.03731C24.6534 5.30976 25.4136 6.74122 25.9247 8.27155C23.4507 8.61084 20.9582 8.79108 18.4621 8.81118V4.4312C20.2068 4.42323 21.9489 4.2916 23.6758 4.03731ZM23.6971 9.2681C25.388 9.10464 27.1485 8.85847 28.9572 8.51182C29.8111 10.0611 30.4393 11.729 30.8218 13.4629C28.6227 13.8457 26.4057 14.1126 24.1796 14.2626C24.2317 13.2936 24.282 10.8948 23.6971 9.26612V9.2681ZM18.6088 15.1763H18.9832C21.685 15.1803 24.385 15.0344 27.0713 14.7391C26.9246 14.8238 26.7817 14.9105 26.6389 15.003C24.6313 16.3226 23.1392 18.4298 22.2107 21.2126C20.9811 21.2697 19.7766 21.2973 18.6088 21.2993V15.1763ZM26.5964 15.8223L31.1655 17.2324C29.4282 18.8316 28.2024 21.0728 27.4689 23.2844L22.6122 22.089C23.3129 19.6351 24.5329 17.3388 26.5964 15.8164V15.8223ZM31.621 17.6716L33.1826 21.1634C32.0882 21.8704 31.3739 22.9713 30.9126 24.1628L28.0943 23.4814C28.7738 21.4135 29.9069 19.2176 31.621 17.6657V17.6716ZM36.165 15.0483C35.6434 15.0432 35.1237 15.1122 34.6207 15.2532C33.5798 15.5518 32.6062 16.0549 31.7542 16.7342L27.2952 15.3556C28.6985 14.5225 30.3489 14.1365 32.0882 14.2369C33.7096 14.3295 35.0512 14.623 36.165 15.0424V15.0483ZM34.9392 13.9829C34.4196 13.8587 33.8938 13.7634 33.3641 13.6973C33.8467 13.591 34.3235 13.4807 34.8003 13.3605C34.8562 13.5713 34.9006 13.7781 34.9392 13.9829ZM34.6092 12.6535C33.588 12.9096 32.5656 13.1334 31.5419 13.3251C31.1665 11.5906 30.5524 9.91905 29.7177 8.36017C30.5304 8.19477 31.3585 8.00373 32.1866 7.79497C33.2651 9.26029 34.0861 10.9056 34.613 12.6574L34.6092 12.6535ZM31.6963 7.15882C29.9764 7.58423 28.2931 7.91114 26.6601 8.15732C26.4536 7.46802 25.861 5.79402 24.4943 3.89748C25.3951 3.7419 26.3184 3.54496 27.2643 3.30666C28.95 4.32109 30.4508 5.62575 31.7001 7.16279L31.6963 7.15882ZM17.7806 1.04182C17.8401 1.0095 17.9064 0.992589 17.9737 0.992589C18.041 0.992589 18.1073 1.0095 18.1667 1.04182C19.8114 1.95169 20.7649 2.85566 21.3093 3.5745C19.0996 3.762 16.8778 3.74618 14.6709 3.52723C15.2249 2.8143 16.1708 1.93003 17.7806 1.04182ZM16.5781 0.795645C16.5871 0.795094 16.5961 0.797667 16.6036 0.80295C16.611 0.808228 16.6165 0.815914 16.6192 0.824768C16.6219 0.833623 16.6215 0.843136 16.6183 0.851784C16.615 0.860428 16.609 0.867709 16.6012 0.872454C15.3716 1.65234 14.4412 2.51101 13.8293 3.4327C12.4738 3.26996 11.1301 3.01801 9.8065 2.67841C11.9243 1.61331 14.2234 0.974087 16.5781 0.795645ZM5.16216 6.08748C6.26674 4.94822 7.51969 3.96944 8.88574 3.17864C9.95811 3.49729 11.0489 3.74724 12.1519 3.92702C10.7292 5.91023 10.1482 7.64725 9.97443 8.25974C8.04619 8.00102 6.13585 7.61817 4.25492 7.11356C4.54252 6.761 4.84174 6.41836 5.16216 6.08748ZM0.722435 17.0768C0.705207 15.8001 0.849892 14.5265 1.15289 13.2877C1.41349 13.3487 2.00996 13.4846 2.89018 13.652C2.4076 15.9838 2.41725 18.6662 2.44235 19.7218C1.69724 19.5681 1.13552 19.4401 0.776484 19.3535C0.74753 18.6425 0.734018 17.9631 0.720506 17.0768H0.722435ZM0.807371 20.1511C1.5544 20.3264 2.89597 20.6178 4.71046 20.9211V26.3548C2.73769 25.8683 1.5351 25.3957 1.0892 25.2086C0.940561 22.7212 0.855629 21.3012 0.805438 20.1511H0.807371ZM9.00541 27.9402V33.104C7.13302 32.8499 5.37836 32.4836 4.0059 31.9657L3.9036 26.9259L4.17578 26.9968L4.35047 27.0411C4.42768 27.0608 4.50488 27.0805 4.58502 27.0992C4.66511 27.1179 4.74426 27.1386 4.82629 27.1573L5.11582 27.2243L5.33491 27.2735L5.71328 27.3562C5.85418 27.3867 6.00282 27.4163 6.1447 27.4458C6.50761 27.52 6.88851 27.5919 7.28743 27.6615C7.60915 27.7173 7.94376 27.7721 8.29121 27.8259C8.54505 27.8643 8.80565 27.9028 9.07297 27.9392L9.00541 27.9402ZM7.10021 26.8668L6.87918 26.8255L6.66009 26.7841L6.44677 26.7418L6.23832 26.6994L6.03275 26.6571L5.64667 26.5744L5.43916 26.5281V21.0393C7.29613 21.3347 9.57199 21.6222 12.1624 21.8192V27.5226C11.124 27.4399 10.1781 27.3355 9.32875 27.2213C8.52959 27.114 7.78452 26.9939 7.09827 26.8668H7.10021ZM17.7305 33.6613C15.4701 33.6357 12.5186 33.5274 9.73894 33.1946V28.0248C12.3315 28.3379 14.9403 28.4905 17.551 28.4817H17.7305V33.6613ZM18.464 33.6613V28.4719C19.3114 28.462 20.1936 28.4364 21.1104 28.3951C21.0823 30.1453 21.1836 31.8952 21.4135 33.6298C21.0081 33.6495 19.9291 33.6771 18.4621 33.6692L18.464 33.6613ZM21.2012 26.4532C21.1703 26.855 21.1471 27.2528 21.1317 27.6428C18.3889 27.7768 15.6409 27.7525 12.9008 27.5699V21.8724C14.6555 21.9886 16.5433 22.0575 18.5315 22.0575C19.6473 22.0575 20.7977 22.0339 21.9713 21.9827C21.5685 23.4455 21.3098 24.9458 21.1992 26.4611L21.2012 26.4532ZM26.6389 27.7984C26.6331 28.1548 26.6273 28.6511 26.6254 29.2223L21.7706 27.887C21.8184 26.1451 22.0448 24.413 22.4462 22.7192L27.272 23.9068C26.8926 25.1695 26.6796 26.4782 26.6389 27.7984ZM27.411 35.2821C27.411 34.4038 27.2547 31.875 27.2604 29.9076L30.1038 29.7382C30.1115 29.8466 30.1212 30.2109 30.1212 30.2168L30.3296 34.3802L27.411 35.2821ZM30.0922 29.1041L27.2662 29.2794C27.2662 28.6314 27.2759 28.1962 27.2817 27.8023C27.2991 26.8649 27.4921 25.5375 27.9071 24.0998L30.6925 24.7832C30.2644 26.1823 30.0598 27.6426 30.0864 29.108L30.0922 29.1041ZM33.4587 31.0046C33.3293 31.0046 33.1961 31.0046 33.063 31.0046C32.3096 31.0041 31.5575 31.0666 30.8141 31.1917L30.764 30.1695C30.764 30.1646 30.764 30.1351 30.7582 30.0848C30.7576 30.076 30.7576 30.0671 30.7582 30.0583C30.7582 30.0484 30.7582 30.0386 30.7582 30.0277C30.7586 30.0238 30.7586 30.0198 30.7582 30.0159C30.7582 30.0071 30.7582 29.9972 30.7582 29.9864C30.7582 29.946 30.7524 29.8997 30.7505 29.8475C30.7485 29.7953 30.7505 29.7491 30.7446 29.6969C30.7446 29.6732 30.7446 29.6477 30.7446 29.621C30.7446 29.4763 30.7379 29.305 30.7389 29.1139C30.7389 29.0627 30.7389 29.0095 30.7389 28.9554C30.7389 28.9209 30.7389 28.8855 30.7389 28.85C30.7389 28.7585 30.7389 28.6629 30.7466 28.5645C30.7466 28.5152 30.7485 28.465 30.7524 28.4138C30.7524 28.3626 30.7524 28.3153 30.7601 28.2592C30.7678 28.2031 30.7649 28.1538 30.7688 28.0997C30.7726 28.0455 30.7756 27.9914 30.7794 27.9362C30.7833 27.8811 30.7871 27.8259 30.792 27.7698L30.8006 27.6713C30.8006 27.6241 30.8093 27.5728 30.8141 27.5275C30.8141 27.4941 30.8209 27.4596 30.8238 27.4291C30.8296 27.371 30.8364 27.3129 30.8431 27.2548L30.8576 27.1337C30.8624 27.0923 30.8672 27.051 30.873 27.0096C30.8788 26.9682 30.8836 26.9328 30.8894 26.8944C30.8972 26.8343 30.9058 26.7733 30.9165 26.7112C30.9271 26.6492 30.9377 26.5714 30.9503 26.5015C30.9589 26.4464 30.9686 26.3912 30.9782 26.3361C31.8084 26.321 32.6387 26.3578 33.4645 26.4464L33.4587 31.0046ZM38.41 27.631C38.3954 28.0514 38.3713 28.3311 38.3665 28.3872C38.3662 28.3892 38.3662 28.3912 38.3665 28.3931L38.1909 31.9184C36.873 31.433 35.496 31.1348 34.0986 31.0322V26.5202C36.7045 26.8826 38.3858 27.6251 38.409 27.6369V27.631H38.41ZM31.1104 25.6733C31.3846 24.5193 31.8517 23.3613 32.6296 22.4829C35.7973 22.4219 37.5519 23.0166 37.8955 23.1466C38.0035 23.4581 38.0912 23.7765 38.1581 24.0998C38.3381 25.0344 38.4238 25.9853 38.4138 26.9377C37.5992 26.6128 34.8292 25.6379 31.1047 25.6773L31.1104 25.6733ZM41.5158 30.8234L38.8192 32.1409L39.0026 28.4423C39.0083 28.3951 39.0354 28.0878 39.0527 27.6231L41.6586 26.3528C41.6222 28.3596 41.5392 30.2365 41.5099 30.8273L41.5158 30.8234ZM41.6625 25.6261L39.0624 26.8964C39.0624 25.7777 38.9523 24.2475 38.5007 22.9575L41.3091 20.3835C41.3945 20.6765 41.4589 20.9753 41.5024 21.2776C41.6376 22.3155 41.6704 23.9718 41.6566 25.63L41.6625 25.6261Z" fill="#00142D"/>
<path d="M34.9394 13.9827C34.4198 13.8585 33.894 13.7632 33.3643 13.6971C33.8468 13.5908 34.3236 13.4805 34.8004 13.3604C34.8564 13.5711 34.9008 13.7779 34.9394 13.9827Z" fill="#F5FDFF"/>
<path d="M41.6509 26.3564C41.622 28.3633 41.539 30.2362 41.5101 30.827L38.8135 32.1446L38.9969 28.446C39.0026 28.3987 39.0297 28.0915 39.047 27.6267L41.6509 26.3564Z" fill="#F5FDFF"/>
<path d="M41.6579 25.6303L39.0578 26.9006C39.0578 25.782 38.9478 24.2517 38.4961 22.9618L41.3104 20.3838C41.3954 20.6768 41.4603 20.9756 41.5033 21.2779C41.6385 22.3158 41.6714 23.9721 41.6579 25.6303Z" fill="#F5FDFF"/>
<path d="M37.5277 22.3527C36.7749 22.142 35.3889 21.8604 33.3428 21.8367C33.8892 21.4447 34.5166 21.186 35.1766 21.0805C35.9487 20.9997 36.5587 21.2065 37.0529 21.7087C37.2376 21.9017 37.3972 22.1181 37.5277 22.3527Z" fill="#F5FDFF"/>
<path d="M38.4136 26.9377C37.599 26.6127 34.829 25.6379 31.1035 25.6773C31.3776 24.5232 31.8448 23.3652 32.6227 22.4868C35.7903 22.4257 37.545 23.0205 37.8886 23.1505C38.3171 24.3617 38.4136 25.8545 38.4136 26.9377Z" fill="#F5FDFF"/>
<path d="M33.4532 26.4413V31.0083C33.3239 31.0083 33.1907 31.0083 33.0575 31.0083C32.3042 31.0078 31.552 31.0704 30.8087 31.1955L30.7585 30.1694C30.6753 28.8873 30.7454 27.5997 30.967 26.3349C31.7971 26.3186 32.6274 26.3541 33.4532 26.4413Z" fill="#F5FDFF"/>
<path d="M38.4041 27.6313C38.3886 28.0901 38.3616 28.3816 38.3597 28.3974L38.1841 31.9266C36.8662 31.4412 35.4892 31.1429 34.0918 31.0403V26.5205C36.6977 26.8829 38.379 27.6253 38.4022 27.6372L38.4041 27.6313Z" fill="#F5FDFF"/>
<path d="M30.33 34.3763L27.4056 35.2862C27.4056 34.4078 27.2493 31.8791 27.255 29.9116L30.1042 29.7383C30.1119 29.8466 30.1216 30.211 30.1216 30.2169L30.33 34.3763Z" fill="#F5FDFF"/>
<path d="M30.0867 29.1078L27.2607 29.2831C27.2607 28.6352 27.2704 28.1999 27.2762 27.8061C27.2936 26.8686 27.4866 25.5412 27.9016 24.1035L30.6929 24.783C30.2648 26.1821 30.0601 27.6424 30.0867 29.1078Z" fill="#F5FDFF"/>
<path d="M33.183 21.1578C32.0886 21.8648 31.3743 22.9657 30.913 24.1572L28.0947 23.4758C28.7703 21.4138 29.9073 19.2179 31.6214 17.666L33.183 21.1578Z" fill="#F5FDFF"/>
<path d="M37.0755 15.7945L35.9945 20.4522C35.699 20.4036 35.3984 20.3956 35.1008 20.4285H35.0834C34.624 20.5044 34.1767 20.6429 33.7534 20.8402L32.1416 17.2322C32.9334 16.6118 33.8344 16.1518 34.7958 15.8772C35.5385 15.6655 36.3199 15.6372 37.0755 15.7945Z" fill="#F5FDFF"/>
<path d="M36.1647 15.0427C35.6432 15.0376 35.1234 15.1066 34.6205 15.2476C33.5792 15.548 32.6054 16.0531 31.7539 16.7345L27.2949 15.3559C28.6983 14.5228 30.3487 14.1368 32.0879 14.2373C33.7093 14.3298 35.0509 14.6233 36.1647 15.0427Z" fill="#F5FDFF"/>
<path d="M31.1665 17.2324C29.4292 18.8316 28.2035 21.0728 27.47 23.2844L22.6133 22.089C23.314 19.6351 24.5339 17.3388 26.5975 15.8164L31.1665 17.2324Z" fill="#F5FDFF"/>
<path d="M27.2748 23.9063C26.8947 25.169 26.6812 26.4777 26.6397 27.7979C26.634 28.1543 26.6282 28.6507 26.6263 29.2218L21.7715 27.8865C21.8192 26.1446 22.0456 24.4125 22.4471 22.7188L27.2748 23.9063Z" fill="#F5FDFF"/>
<path d="M21.4114 33.637C21.008 33.6488 19.929 33.6764 18.4619 33.6685V28.4791C19.3093 28.4693 20.1915 28.4437 21.1084 28.4023C21.0802 30.1525 21.1816 31.9024 21.4114 33.637Z" fill="#F5FDFF"/>
<path d="M9.06691 27.94H9.00319V33.1039C7.1308 32.8498 5.37614 32.4835 4.00368 31.9655L3.90137 26.9258C5.60167 27.3693 7.32664 27.7081 9.06691 27.94Z" fill="#F5FDFF"/>
<path d="M17.7288 28.4842V33.6658C15.4684 33.6402 12.517 33.5318 9.7373 33.199V28.0293C12.3299 28.3424 14.9386 28.4949 17.5493 28.4862L17.7288 28.4842Z" fill="#F5FDFF"/>
<path d="M21.9709 21.9863C21.5683 23.4479 21.3096 24.9468 21.1988 26.4608C21.1679 26.8626 21.1448 27.2604 21.1293 27.6504C18.3865 27.7844 15.6385 27.7601 12.8984 27.5775V21.8721C14.655 21.9883 16.5429 22.0572 18.5311 22.0572C19.6468 22.0572 20.7973 22.0375 21.9709 21.9863Z" fill="#F5FDFF"/>
<path d="M12.1608 21.8189V27.5224C11.1223 27.4397 10.1764 27.3353 9.32708 27.2211C7.82915 27.0241 6.53394 26.776 5.4375 26.5318V21.0391C7.29834 21.3325 9.57416 21.622 12.1608 21.8189Z" fill="#F5FDFF"/>
<path d="M4.70777 20.9214V26.355C2.73693 25.8685 1.53435 25.3959 1.08844 25.2088C0.939806 22.7234 0.854874 21.3035 0.804688 20.1533C1.55172 20.3266 2.89522 20.6181 4.70777 20.9214Z" fill="#F5FDFF"/>
<path d="M2.43811 19.7212C1.693 19.5676 1.13128 19.4395 0.772242 19.3529C0.747151 18.642 0.733638 17.9625 0.720126 17.0763C0.702894 15.7995 0.847579 14.526 1.15059 13.2871C1.41118 13.3481 2.00765 13.4841 2.88787 13.6514C2.40529 15.9832 2.41301 18.6656 2.43811 19.7212Z" fill="#F5FDFF"/>
<path d="M9.73079 20.8268C7.02833 20.5412 4.79303 20.1749 3.17737 19.8657C3.15227 18.9874 3.11753 16.1534 3.60975 13.7881C5.15401 14.0697 7.31597 14.4104 9.90837 14.6842C9.68445 17.6501 9.70762 19.9327 9.73079 20.8268Z" fill="#F5FDFF"/>
<path d="M27.0709 14.7334C26.9242 14.8181 26.7813 14.9047 26.6385 14.9973C24.631 16.3168 23.1388 18.4241 22.2104 21.2069C20.9808 21.264 19.7762 21.2916 18.6084 21.2935V15.1706H18.9829C21.6847 15.1746 24.3847 15.0286 27.0709 14.7334Z" fill="#F5FDFF"/>
<path d="M34.613 12.6574C33.5919 12.9134 32.5695 13.1373 31.5458 13.329C31.1695 11.5929 30.5541 9.92001 29.7178 8.36016C30.5304 8.19472 31.3585 8.00368 32.1866 7.79492C33.2652 9.26028 34.0861 10.9055 34.613 12.6574Z" fill="#F5FDFF"/>
<path d="M31.701 7.16272C29.9811 7.58813 28.2979 7.91504 26.6648 8.16121C26.4583 7.47192 25.8657 5.79792 24.499 3.90137C25.3998 3.74579 26.3231 3.54885 27.269 3.31055C28.9531 4.32418 30.4525 5.62746 31.701 7.16272Z" fill="#F5FDFF"/>
<path d="M16.6013 0.8718C15.3717 1.65169 14.4413 2.51036 13.8294 3.43205C12.474 3.26931 11.1302 3.01736 9.80664 2.67776C11.9245 1.61265 14.2235 0.973434 16.5782 0.794995C16.5873 0.794445 16.5962 0.797017 16.6037 0.802296C16.6111 0.807579 16.6167 0.81526 16.6193 0.824114C16.622 0.832969 16.6217 0.842483 16.6184 0.851131C16.6152 0.859779 16.6092 0.867056 16.6013 0.8718Z" fill="#F5FDFF"/>
<path d="M21.3092 3.5741C19.0996 3.7616 16.8778 3.74578 14.6709 3.52683C15.223 2.8139 16.1688 1.92963 17.7787 1.04142C17.8381 1.0091 17.9044 0.992188 17.9717 0.992188C18.039 0.992188 18.1053 1.0091 18.1648 1.04142C19.8113 1.9513 20.7649 2.85526 21.3092 3.5741Z" fill="#F5FDFF"/>
<path d="M17.7277 4.43184V8.81183C15.3827 8.80123 13.0403 8.6493 10.7129 8.3569C10.9213 7.67941 11.5487 5.94829 12.9752 4.05566C14.5499 4.28424 16.1373 4.40988 17.7277 4.43184Z" fill="#F5FDFF"/>
<path d="M12.1518 3.92709C10.7292 5.9103 10.1481 7.64732 9.97444 8.25981C8.04615 8.00105 6.13581 7.61824 4.25488 7.11359C4.54442 6.76107 4.84171 6.41839 5.16216 6.08755C6.2667 4.94829 7.51965 3.96951 8.88571 3.17871C9.95807 3.49736 11.0489 3.74731 12.1518 3.92709Z" fill="#F5FDFF"/>
<path d="M12.9875 9.33114C12.4895 10.8988 12.391 13.2365 12.3737 14.1759C10.175 14.0026 8.20801 13.7663 6.55566 13.526C6.88383 10.5916 7.90689 9.14208 8.24664 8.73047C9.59205 8.96091 11.1865 9.1795 12.9875 9.33114Z" fill="#F5FDFF"/>
<path d="M23.4414 14.3097C19.9982 14.5038 16.5464 14.4775 13.1064 14.231C13.1258 13.3151 13.2261 10.8416 13.7435 9.39013C15.0638 9.48859 16.4845 9.54178 17.9902 9.54178C19.5537 9.54178 21.2061 9.4807 22.9337 9.33496C23.5649 10.8416 23.4896 13.4176 23.4414 14.3097Z" fill="#F5FDFF"/>
<path d="M24.1798 14.2605C24.232 13.2896 24.2822 10.8947 23.6973 9.26601C25.3882 9.10255 27.1487 8.85638 28.9574 8.50977C29.8113 10.059 30.4395 11.7269 30.8221 13.4609C28.623 13.8437 26.4059 14.1106 24.1798 14.2605Z" fill="#F5FDFF"/>
<path d="M25.9245 8.2714C23.4505 8.61069 20.9581 8.79093 18.4619 8.81104V4.43105C20.2062 4.42102 21.9477 4.28741 23.6738 4.03125C24.6526 5.30532 25.4135 6.73885 25.9245 8.2714Z" fill="#F5FDFF"/>
<path d="M26.3297 2.74802C24.9503 3.06884 23.5536 3.30625 22.1467 3.45898C21.5116 2.47427 20.5214 1.56834 19.1914 0.745117C21.6806 0.904443 24.1107 1.5863 26.3297 2.74802Z" fill="#80ABFF"/>
<path d="M7.41928 8.54902C6.91259 9.27472 6.11344 10.7932 5.81904 13.382C3.43415 13.0137 1.83295 12.6622 1.33203 12.5469C1.85478 10.7968 2.67833 9.15528 3.76423 7.69922C4.30375 7.85871 5.57295 8.20338 7.41928 8.54902Z" fill="#80ABFF"/>
<path d="M17.8643 15.1284V21.2552C15.1695 21.2345 12.6736 21.0809 10.4596 20.8662C10.4136 18.817 10.4716 16.7667 10.6333 14.7236C12.802 14.9344 15.2497 15.0919 17.8643 15.1284Z" fill="#80ABFF"/>
<path d="M3.2542 31.6178C2.4261 31.2239 1.79971 30.7532 1.4648 30.1929C1.40061 30.0776 1.36453 29.9482 1.3596 29.8157C1.27177 28.3298 1.19552 27.0763 1.13086 26.0029C1.55842 26.1713 2.23017 26.4145 3.15286 26.6844L3.2542 31.6178Z" fill="#80ABFF"/>
<path d="M26.6122 35.2815C25.2128 35.0846 22.7285 34.0546 22.076 33.7779C21.8317 32.0379 21.7219 30.281 21.7479 28.5234L26.6142 29.8607C26.6045 31.8488 26.6103 34.3608 26.6122 35.2815Z" fill="#80ABFF"/>
<path d="M41.0692 19.6745L38.2201 22.28C38.0369 21.8849 37.791 21.5232 37.4924 21.2096C37.2388 20.9491 36.9374 20.742 36.6055 20.6001L37.6864 15.9355C38.0647 16.0692 38.4239 16.2533 38.7549 16.483C39.7844 17.3241 40.5821 18.424 41.0692 19.6745Z" fill="#80ABFF"/>
<path d="M1.13086 26.0029C1.1907 27.0861 1.27949 28.3367 1.36153 29.8266C1.36712 29.9599 1.40492 30.0898 1.47156 30.2047C1.6022 30.4156 1.76141 30.6065 1.94449 30.7719C2.33626 31.1203 2.77794 31.4056 3.2542 31.6178L3.15286 26.6854C2.22824 26.4097 1.55939 26.1753 1.13086 26.0029Z" fill="#6691E5"/>
<path d="M5.4413 26.5283V25.388C5.95479 25.8735 6.50781 26.3727 7.09752 26.8651C6.50299 26.7578 5.94996 26.6435 5.4413 26.5283ZM21.4108 33.6379C20.4162 33.51 19.4309 33.3156 18.4613 33.0559V33.6694C19.9283 33.6773 21.0074 33.6497 21.4108 33.6379ZM4.00322 31.9639C5.37567 32.4819 7.13033 32.8501 9.00276 33.1022V28.3697C8.75758 28.1905 8.52018 28.0083 8.2837 27.8262C6.8083 27.605 5.34531 27.3046 3.90091 26.9262L4.00322 31.9639ZM17.7278 33.6635V32.8452C14.7223 31.9423 12.0333 30.4938 9.73625 28.8926V33.1968C12.5159 33.5316 15.4674 33.6399 17.7278 33.6655V33.6635ZM4.70777 26.355V24.681C2.19837 22.1858 0.804688 20.1514 0.804688 20.1514C0.854874 21.3015 0.939806 22.7214 1.08844 25.2069C1.53435 25.3959 2.73693 25.8686 4.70777 26.355Z" fill="#DBE3E5"/>
<path d="M37.889 23.1536C38.3175 24.3638 38.414 25.8576 38.414 26.9408C37.5994 26.6158 34.8294 25.641 31.1039 25.6804C31.378 24.5263 31.8451 23.3683 32.623 22.4899C35.7907 22.4288 37.5454 23.0226 37.889 23.1536ZM37.0512 21.7081C36.557 21.2058 35.9432 20.998 35.1749 21.0798C34.5152 21.1854 33.8879 21.4438 33.3411 21.8351C35.3873 21.8577 36.7732 22.1413 37.5261 22.3521C37.3955 22.1174 37.2359 21.901 37.0512 21.7081ZM34.092 26.5233V31.045C34.5679 31.0795 35.0176 31.1356 35.4365 31.2046C36.3229 31.3499 37.1949 31.575 38.0424 31.8771L38.1824 31.9283L38.358 28.4001C38.358 28.3834 38.387 28.0929 38.4024 27.634V27.639C38.3792 27.6281 36.6941 26.8817 34.092 26.5233ZM30.9668 26.3342C30.8813 26.8087 30.8192 27.2872 30.7806 27.7679C30.7622 27.9924 30.7487 28.2091 30.74 28.4119C30.74 28.4632 30.7381 28.5134 30.7343 28.5626C30.7275 28.7595 30.7246 28.9447 30.7246 29.1121C30.7246 29.4075 30.7304 29.6527 30.7381 29.8319C30.7381 29.9087 30.7448 29.9737 30.7477 30.0288C30.7535 30.1145 30.7574 30.1637 30.7584 30.1706L30.8086 31.1967C31.5519 31.0717 32.304 31.0091 33.0574 31.0096C33.1906 31.0096 33.3238 31.0096 33.4531 31.0096V26.4445C32.6274 26.355 31.7971 26.3181 30.9668 26.3342Z" fill="#DBE3E5"/>
</g>
<defs>
<clipPath id="clip0_163_17547">
<rect width="42.3" height="36" fill="white"/>
</clipPath>
</defs>
</svg>
